<?xml version="1.0" encoding="UTF-8" standalone="no"?>
<svg
   xmlns="http://www.w3.org/2000/svg"
   width="128px"
   height="128px"
   viewBox="0 0 128 128"
   version="1.1">

  <!-- Background -->
  <rect width="128" height="128" rx="26" fill="#5e8c6a"/>

  <!-- Eyebrow - raised 8px so inner bottom barely touches sclera top (y=47) -->
  <path d="M16 46C14 26,34 16,50 32C55 37,60 41,64 41C68 41,73 37,78 32C94 16,114 26,112 46C110 42,96 28,80 40C75 44,70 47,64 47C58 47,53 44,48 40C32 28,18 42,16 46Z" fill="#1c1c1c"/>

  <!-- Sclera (yellow) -->
  <ellipse cx="64" cy="70" rx="26" ry="23" fill="#f2e840"/>

  <!-- Iris (red) - centered at icon center (64, 64) -->
  <ellipse cx="64" cy="64" rx="13" ry="13" fill="#cc2020"/>

  <!-- White highlight -->
  <circle cx="69" cy="58" r="3.5" fill="white" opacity="0.88"/>

</svg>
